<?xml version="1.0" encoding="utf-8"?>
<!-- Generator: Adobe Illustrator 28.0.0, SVG Export Plug-In . SVG Version: 6.00 Build 0)  -->
<svg version="1.1" id="Layer_1" xmlns="http://www.w3.org/2000/svg" xmlns:xlink="http://www.w3.org/1999/xlink" x="0px" y="0px"
	 viewBox="0 0 100 125" style="enable-background:new 0 0 100 125;" xml:space="preserve">
<path d="M97,87.3L68.5,58.8c3.9-5.7,6.3-12.5,6.3-19.9C74.8,19.6,59.1,4,39.9,4C20.6,4,5,19.6,5,38.9s15.6,34.9,34.9,34.9
	c7.4,0,14.3-2.3,19.9-6.3L88.3,96L97,87.3z M39.9,61.5c-12.5,0-22.6-10.1-22.6-22.6c0-12.5,10.1-22.6,22.6-22.6s22.6,10.1,22.6,22.6
	c0,5.9-2.3,11.4-6.1,15.4l-1.2,1.2C51.2,59.2,45.8,61.5,39.9,61.5z"/>
</svg>
