<?xml version="1.0" encoding="utf-8"?>
<!-- Generator: Adobe Illustrator 28.0.0, SVG Export Plug-In . SVG Version: 6.00 Build 0)  -->
<svg version="1.1" id="Layer_1" xmlns="http://www.w3.org/2000/svg" xmlns:xlink="http://www.w3.org/1999/xlink" x="0px" y="0px"
	 viewBox="0 0 100 125" style="enable-background:new 0 0 100 125;" xml:space="preserve">
<path d="M97,99.8L68.5,71.3c3.9-5.7,6.3-12.5,6.3-19.9c0-19.3-15.7-34.9-34.9-34.9C20.6,16.5,5,32.1,5,51.4s15.6,34.9,34.9,34.9
	c7.4,0,14.3-2.3,19.9-6.3l28.5,28.5L97,99.8z M39.9,74c-12.5,0-22.6-10.1-22.6-22.6s10.1-22.6,22.6-22.6s22.6,10.1,22.6,22.6
	c0,5.9-2.3,11.4-6.1,15.4L55.2,68C51.2,71.7,45.8,74,39.9,74z"/>
</svg>
