<?xml version="1.0" encoding="utf-8"?>
<!-- Generator: Adobe Illustrator 28.0.0, SVG Export Plug-In . SVG Version: 6.00 Build 0)  -->
<svg version="1.1" id="Layer_1" xmlns="http://www.w3.org/2000/svg" xmlns:xlink="http://www.w3.org/1999/xlink" x="0px" y="0px"
	 viewBox="0 0 100 125" style="enable-background:new 0 0 100 125;" xml:space="preserve">
<style type="text/css">
	.st0{fill:#141414;}
</style>
<g>
	<path class="st0" d="M58.8,60.8L45.7,47.8L35.3,58.2l13.1,13.1L77.1,100l10.5-10.5L58.8,60.8z M40.5,58.2l5.2-5.2l10.5,10.5
		l-5.2,5.2L40.5,58.2z"/>
	<rect x="26.9" y="32" transform="matrix(0.7073 -0.7069 0.7069 0.7073 -20.7399 32.387)" class="st0" width="3.7" height="18.5"/>
	
		<rect x="53.5" y="39.4" transform="matrix(0.7071 -0.7071 0.7071 0.7071 -10.7928 56.4216)" class="st0" width="18.5" height="3.7"/>
	
		<rect x="19.5" y="73.4" transform="matrix(0.7071 -0.7071 0.7071 0.7071 -44.7652 42.3508)" class="st0" width="18.5" height="3.7"/>
	<rect x="43.9" y="25" class="st0" width="3.7" height="18.5"/>
	<rect x="12.5" y="56.4" class="st0" width="18.5" height="3.7"/>
</g>
</svg>
